<svg width="300" height="300" viewBox="0 0 300 300" fill="none" xmlns="http://www.w3.org/2000/svg">
<rect width="300" height="300" rx="150" fill="#DAC5A7"/>
<path d="M116.812 218.2C107.132 218.2 98.4789 215.853 90.8523 211.16C83.2256 206.32 77.1389 199.793 72.5923 191.58C68.1923 183.367 65.9923 174.127 65.9923 163.86C65.9923 153.593 68.1923 144.353 72.5923 136.14C77.1389 127.927 83.2256 121.4 90.8523 116.56C98.4789 111.72 107.132 109.3 116.812 109.3C124.586 109.3 131.626 110.987 137.932 114.36C144.239 117.587 149.299 122.133 153.112 128C157.072 133.72 159.272 140.393 159.712 148.02V179.48C159.272 186.96 157.146 193.633 153.332 199.5C149.519 205.367 144.459 209.987 138.152 213.36C131.846 216.587 124.732 218.2 116.812 218.2ZM120.112 199.5C126.712 199.5 132.432 197.96 137.272 194.88C142.259 191.8 146.146 187.62 148.932 182.34C151.719 176.913 153.112 170.753 153.112 163.86C153.112 156.673 151.646 150.44 148.712 145.16C145.926 139.88 142.039 135.7 137.052 132.62C132.212 129.54 126.492 128 119.892 128C113.292 128 107.499 129.54 102.512 132.62C97.5256 135.7 93.5656 139.953 90.6323 145.38C87.8456 150.66 86.4523 156.747 86.4523 163.64C86.4523 170.68 87.8456 176.913 90.6323 182.34C93.5656 187.62 97.5256 191.8 102.512 194.88C107.646 197.96 113.512 199.5 120.112 199.5ZM171.812 216H151.792V187.84L155.532 162.32L151.792 137.02V58.92H171.812V216ZM218.019 218.2C213.912 218.2 210.466 216.807 207.679 214.02C205.039 211.087 203.719 207.64 203.719 203.68C203.719 199.573 205.039 196.2 207.679 193.56C210.466 190.773 213.912 189.38 218.019 189.38C222.126 189.38 225.499 190.773 228.139 193.56C230.926 196.2 232.319 199.573 232.319 203.68C232.319 207.64 230.926 211.087 228.139 214.02C225.499 216.807 222.126 218.2 218.019 218.2Z" fill="#1D1E1F"/>
</svg>
